{"accessors" : [{"bufferView" : 0, "byteOffset" : 0, "componentType" : 5123, "count" : 38400, "type" : "SCALAR", "max" : [31999], "min" : [0]}, {"bufferView" : 1, "byteOffset" : 0, "componentType" : 5126, "count" : 32000, "type" : "VEC3", "max" : [2.009999990463257, 0.009999999776482582, 2.009999990463257], "min" : [-2.009999990463257, -0.009999999776482582, -2.009999990463257], "name" : "POSITION"}, {"bufferView" : 1, "byteOffset" : 12, "componentType" : 5126, "count" : 32000, "type" : "VEC3", "max" : [1.0000044107437134, 1.0000044107437134, 1.0000044107437134], "min" : [-1.0000044107437134, -1.0000044107437134, -1.0000044107437134], "name" : "NORMAL"}, {"bufferView" : 1, "byteOffset" : 24, "componentType" : 5126, "count" : 32000, "type" : "VEC2", "max" : [1, 4.5102810375396984E-17], "min" : [-4.5102810375396984E-17, -1], "name" : "TEXCOORD_0"}, {"bufferView" : 0, "byteOffset" : 76800, "componentType" : 5123, "count" : 132, "type" : "SCALAR", "max" : [131], "min" : [0]}, {"bufferView" : 2, "byteOffset" : 0, "componentType" : 5126, "count" : 132, "type" : "VEC3", "max" : [0.8029999732971191, 1.0130000114440918, 0.10000000149011612], "min" : [0, 0, 0], "name" : "POSITION"}, {"bufferView" : 2, "byteOffset" : 12, "componentType" : 5126, "count" : 132, "type" : "VEC3", "max" : [1.0000044107437134, 1.0000044107437134, 1.0000044107437134], "min" : [-1.0000044107437134, -1.0000044107437134, -1.0000044107437134], "name" : "NORMAL"}, {"bufferView" : 2, "byteOffset" : 24, "componentType" : 5126, "count" : 132, "type" : "VEC2", "max" : [1.0130000114440918, -0], "min" : [0, -1.0130000114440918], "name" : "TEXCOORD_0"}, {"bufferView" : 0, "byteOffset" : 77064, "componentType" : 5123, "count" : 38400, "type" : "SCALAR", "max" : [31999], "min" : [0]}, {"bufferView" : 3, "byteOffset" : 0, "componentType" : 5126, "count" : 32000, "type" : "VEC3", "max" : [2.009999990463257, 0.009999999776482582, 2.009999990463257], "min" : [-2.009999990463257, -0.009999999776482582, -2.009999990463257], "name" : "POSITION"}, {"bufferView" : 3, "byteOffset" : 12, "componentType" : 5126, "count" : 32000, "type" : "VEC3", "max" : [1.0000044107437134, 1.0000044107437134, 1.0000044107437134], "min" : [-1.0000044107437134, -1.0000044107437134, -1.0000044107437134], "name" : "NORMAL"}, {"bufferView" : 3, "byteOffset" : 24, "componentType" : 5126, "count" : 32000, "type" : "VEC2", "max" : [1, 4.5102810375396984E-17], "min" : [-4.5102810375396984E-17, -1], "name" : "TEXCOORD_0"}, {"bufferView" : 0, "byteOffset" : 153864, "componentType" : 5123, "count" : 3312, "type" : "SCALAR", "max" : [2783], "min" : [0]}, {"bufferView" : 4, "byteOffset" : 0, "componentType" : 5126, "count" : 2784, "type" : "VEC3", "max" : [0.019999999552965164, 0.019999999552965164, 0.019999999552965164], "min" : [-0.019999999552965164, -0.019999999552965164, -0.019999999552965164], "name" : "POSITION"}, {"bufferView" : 4, "byteOffset" : 12, "componentType" : 5126, "count" : 2784, "type" : "VEC3", "max" : [1.0000044107437134, 1.0000044107437134, 1.0000044107437134], "min" : [-1.0000044107437134, -1.0000044107437134, -1.0000044107437134], "name" : "NORMAL"}, {"bufferView" : 4, "byteOffset" : 24, "componentType" : 5126, "count" : 2784, "type" : "VEC2", "max" : [1, -7.632783294297951E-17], "min" : [7.632783294297951E-17, -1], "name" : "TEXCOORD_0"}, {"bufferView" : 0, "byteOffset" : 160488, "componentType" : 5123, "count" : 3312, "type" : "SCALAR", "max" : [2783], "min" : [0]}, {"bufferView" : 5, "byteOffset" : 0, "componentType" : 5126, "count" : 2784, "type" : "VEC3", "max" : [0.5, 0.5, 0.5], "min" : [-0.5, -0.5, -0.5], "name" : "POSITION"}, {"bufferView" : 5, "byteOffset" : 12, "componentType" : 5126, "count" : 2784, "type" : "VEC3", "max" : [1.0000044107437134, 1.0000044107437134, 1.0000044107437134], "min" : [-1.0000044107437134, -1.0000044107437134, -1.0000044107437134], "name" : "NORMAL"}, {"bufferView" : 5, "byteOffset" : 24, "componentType" : 5126, "count" : 2784, "type" : "VEC2", "max" : [1, -7.632783294297951E-17], "min" : [7.632783294297951E-17, -1], "name" : "TEXCOORD_0"}, {"bufferView" : 0, "byteOffset" : 167112, "componentType" : 5123, "count" : 3312, "type" : "SCALAR", "max" : [2783], "min" : [0]}, {"bufferView" : 6, "byteOffset" : 0, "componentType" : 5126, "count" : 2784, "type" : "VEC3", "max" : [0.019999999552965164, 0.019999999552965164, 0.019999999552965164], "min" : [-0.019999999552965164, -0.019999999552965164, -0.019999999552965164], "name" : "POSITION"}, {"bufferView" : 6, "byteOffset" : 12, "componentType" : 5126, "count" : 2784, "type" : "VEC3", "max" : [1.0000044107437134, 1.0000044107437134, 1.0000044107437134], "min" : [-1.0000044107437134, -1.0000044107437134, -1.0000044107437134], "name" : "NORMAL"}, {"bufferView" : 6, "byteOffset" : 24, "componentType" : 5126, "count" : 2784, "type" : "VEC2", "max" : [1, -7.632783294297951E-17], "min" : [7.632783294297951E-17, -1], "name" : "TEXCOORD_0"}], "asset" : {"generator" : "Aspose.3D 22.1", "version" : "2.0"}, "buffers" : [{"uri" : "data:application/octet-stream;base64,", "byteLength" : 2953540}], "bufferViews" : [{"buffer" : 0, "byteOffset" : 0, "byteLength" : 173736, "target" : 34963}, {"buffer" : 0, "byteOffset" : 173740, "byteLength" : 1228800, "byteStride" : 32, "target" : 34962}, {"buffer" : 0, "byteOffset" : 1402544, "byteLength" : 4224, "byteStride" : 32, "target" : 34962}, {"buffer" : 0, "byteOffset" : 1406772, "byteLength" : 1228800, "byteStride" : 32, "target" : 34962}, {"buffer" : 0, "byteOffset" : 2635576, "byteLength" : 105984, "byteStride" : 32, "target" : 34962}, {"buffer" : 0, "byteOffset" : 2741564, "byteLength" : 105984, "byteStride" : 32, "target" : 34962}, {"buffer" : 0, "byteOffset" : 2847552, "byteLength" : 105984, "byteStride" : 32, "target" : 34962}], "cameras" : [{"perspective" : {"aspectRatio" : 1.33333333333333, "yfov" : 0.7086036763096978, "zfar" : 50000, "znear" : 0.1}, "type" : "perspective", "name" : "OverCamera-camera"}], "materials" : [{"name" : "", "pbrMetallicRoughness" : {"baseColorFactor" : [0.6901960784313725, 0.7686274509803922, 0.8705882352941177, 1], "metallicFactor" : 0, "roughnessFactor" : 0}, "emissiveFactor" : [0, 0, 0], "alphaMode" : "OPAQUE", "doubleSided" : false}, {"name" : "", "pbrMetallicRoughness" : {"baseColorFactor" : [1, 1, 1, 1], "metallicFactor" : 0, "roughnessFactor" : 0}, "emissiveFactor" : [0, 0, 0], "alphaMode" : "OPAQUE", "doubleSided" : false}, {"name" : "", "pbrMetallicRoughness" : {"baseColorFactor" : [0.6901960784313725, 0.7686274509803922, 0.8705882352941177, 1], "metallicFactor" : 0, "roughnessFactor" : 0}, "emissiveFactor" : [0, 0, 0], "alphaMode" : "OPAQUE", "doubleSided" : false}, {"name" : "", "pbrMetallicRoughness" : {"baseColorFactor" : [1, 0, 0, 1], "metallicFactor" : 0, "roughnessFactor" : 0}, "emissiveFactor" : [0, 0, 0], "alphaMode" : "OPAQUE", "doubleSided" : false}, {"name" : "", "pbrMetallicRoughness" : {"baseColorFactor" : [0, 0, 1, 1], "metallicFactor" : 0, "roughnessFactor" : 0}, "emissiveFactor" : [0, 0, 0], "alphaMode" : "OPAQUE", "doubleSided" : false}, {"name" : "", "pbrMetallicRoughness" : {"baseColorFactor" : [0, 0, 1, 1], "metallicFactor" : 0, "roughnessFactor" : 0}, "emissiveFactor" : [0, 0, 0], "alphaMode" : "OPAQUE", "doubleSided" : false}], "meshes" : [{"primitives" : [{"attributes" : {"POSITION" : 1, "NORMAL" : 2, "TEXCOORD_0" : 3}, "indices" : 0, "material" : 0, "mode" : 4}], "name" : "Torus1-mesh"}, {"primitives" : [{"attributes" : {"POSITION" : 5, "NORMAL" : 6, "TEXCOORD_0" : 7}, "indices" : 4, "material" : 1, "mode" : 4}], "name" : "Text-mesh"}, {"primitives" : [{"attributes" : {"POSITION" : 9, "NORMAL" : 10, "TEXCOORD_0" : 11}, "indices" : 8, "material" : 2, "mode" : 4}], "name" : "Torus-mesh"}, {"primitives" : [{"attributes" : {"POSITION" : 13, "NORMAL" : 14, "TEXCOORD_0" : 15}, "indices" : 12, "material" : 3, "mode" : 4}], "name" : "Sphere1-mesh"}, {"primitives" : [{"attributes" : {"POSITION" : 17, "NORMAL" : 18, "TEXCOORD_0" : 19}, "indices" : 16, "material" : 4, "mode" : 4}], "name" : "Sphere2-mesh"}, {"primitives" : [{"attributes" : {"POSITION" : 21, "NORMAL" : 22, "TEXCOORD_0" : 23}, "indices" : 20, "material" : 5, "mode" : 4}], "name" : "Sphere-mesh"}], "nodes" : [{"matrix" : [0, 0, 0, 0, 0, 0, 0, 0, 0, 0, 0, 0, 0, 0, 0, 1], "mesh" : 0, "name" : "Torus1"}, {"matrix" : [0.4, 0, 0, 0, 0, 0.4, 0, 0, 0, 0, 1, 0, -0.15, -0.2, 0.42, 1], "mesh" : 1, "name" : "Text"}, {"matrix" : [0.93, 0, 0, 0, 0, -1.3395884865856016, 0.033206725332382676, 0, 0, -0.02378989277543833, -0.9597051844195355, 0, 0, 0, 0, 1], "mesh" : 2, "name" : "Torus"}, {"matrix" : [6, 0, 0, 0, 0, -5.980855923208274, -0.4789179740044202, 0, 0, 0.4789179740044202, -5.980855923208274, 0, 0, 0, 1.8749, 1], "mesh" : 3, "name" : "Sphere1"}, {"matrix" : [0.5147837255854026, 0, 0.8573200778428165, 0, 0, 1, 0, 0, -0.8573200778428165, 0, 0.5147837255854026, 0, 0, 0, 0, 1], "mesh" : 4, "name" : "Sphere2"}, {"matrix" : [1, 0, 0, 0, 0, 1, 0, 0, 0, 0, 1, 0, 0.003, -0.0728, 0, 1], "mesh" : 5, "name" : "Sphere"}, {"camera" : 0, "matrix" : [0, 0.5724269861296344, 2.9448815503429926, 0, 0, 2.944881550342992, -0.5724269861296344, 0, -3.000000000000001, 8.326672684688674E-17, 0, 0, 0, 0.7, 3.51, 1], "name" : "OverCamera"}, {"children" : [6], "matrix" : [1, 0, 0, 0, 0, 1, 0, 0, 0, 0, 1, 0, 0, -0.036400001496076584, 0.0950000000000002, 1], "name" : "CameraPreset"}], "scene" : 0, "scenes" : [{"nodes" : [0, 1, 2, 3, 4, 5, 7]}]}