{"accessors" : [{"bufferView" : 0, "byteOffset" : 0, "componentType" : 5123, "count" : 432, "type" : "SCALAR", "max" : [431], "min" : [0]}, {"bufferView" : 1, "byteOffset" : 0, "componentType" : 5126, "count" : 432, "type" : "VEC3", "max" : [1.1100000143051147, 1.0410000085830688, 0.10000000149011612], "min" : [0, -0.026000000536441803, 0], "name" : "POSITION"}, {"bufferView" : 1, "byteOffset" : 12, "componentType" : 5126, "count" : 432, "type" : "VEC3", "max" : [1.0000044107437134, 1.0000044107437134, 1.0000044107437134], "min" : [-1.0000044107437134, -1.0000044107437134, -1.0000044107437134], "name" : "NORMAL"}, {"bufferView" : 1, "byteOffset" : 24, "componentType" : 5126, "count" : 432, "type" : "VEC2", "max" : [1.1100000143051147, 0.026000000536441803], "min" : [-0.026000000536441803, -1.0410000085830688], "name" : "TEXCOORD_0"}, {"bufferView" : 0, "byteOffset" : 864, "componentType" : 5123, "count" : 3312, "type" : "SCALAR", "max" : [2783], "min" : [0]}, {"bufferView" : 2, "byteOffset" : 0, "componentType" : 5126, "count" : 2784, "type" : "VEC3", "max" : [0.5, 0.5, 0.5], "min" : [-0.5, -0.5, -0.5], "name" : "POSITION"}, {"bufferView" : 2, "byteOffset" : 12, "componentType" : 5126, "count" : 2784, "type" : "VEC3", "max" : [1.0000044107437134, 1.0000044107437134, 1.0000044107437134], "min" : [-1.0000044107437134, -1.0000044107437134, -1.0000044107437134], "name" : "NORMAL"}, {"bufferView" : 2, "byteOffset" : 24, "componentType" : 5126, "count" : 2784, "type" : "VEC2", "max" : [1, -7.632783294297951E-17], "min" : [7.632783294297951E-17, -1], "name" : "TEXCOORD_0"}, {"bufferView" : 0, "byteOffset" : 7488, "componentType" : 5123, "count" : 840, "type" : "SCALAR", "max" : [839], "min" : [0]}, {"bufferView" : 3, "byteOffset" : 0, "componentType" : 5126, "count" : 840, "type" : "VEC3", "max" : [1.6119999885559082, 1.0130000114440918, 0.10000000149011612], "min" : [0, -0.02500000037252903, 0], "name" : "POSITION"}, {"bufferView" : 3, "byteOffset" : 12, "componentType" : 5126, "count" : 840, "type" : "VEC3", "max" : [1.0000044107437134, 1.0000044107437134, 1.0000044107437134], "min" : [-1.0000044107437134, -1.0000044107437134, -1.0000044107437134], "name" : "NORMAL"}, {"bufferView" : 3, "byteOffset" : 24, "componentType" : 5126, "count" : 840, "type" : "VEC2", "max" : [1.6119999885559082, 0.02500000037252903], "min" : [-0.02500000037252903, -1.0130000114440918], "name" : "TEXCOORD_0"}, {"bufferView" : 0, "byteOffset" : 9168, "componentType" : 5123, "count" : 3312, "type" : "SCALAR", "max" : [2783], "min" : [0]}, {"bufferView" : 4, "byteOffset" : 0, "componentType" : 5126, "count" : 2784, "type" : "VEC3", "max" : [0.5, 0.5, 0.5], "min" : [-0.5, -0.5, -0.5], "name" : "POSITION"}, {"bufferView" : 4, "byteOffset" : 12, "componentType" : 5126, "count" : 2784, "type" : "VEC3", "max" : [1.0000044107437134, 1.0000044107437134, 1.0000044107437134], "min" : [-1.0000044107437134, -1.0000044107437134, -1.0000044107437134], "name" : "NORMAL"}, {"bufferView" : 4, "byteOffset" : 24, "componentType" : 5126, "count" : 2784, "type" : "VEC2", "max" : [1, -7.632783294297951E-17], "min" : [7.632783294297951E-17, -1], "name" : "TEXCOORD_0"}], "asset" : {"generator" : "Aspose.3D 22.1", "version" : "2.0"}, "buffers" : [{"uri" : "data:application/octet-stream;base64,", "byteLength" : 268484}], "bufferViews" : [{"buffer" : 0, "byteOffset" : 0, "byteLength" : 15792, "target" : 34963}, {"buffer" : 0, "byteOffset" : 15796, "byteLength" : 13824, "byteStride" : 32, "target" : 34962}, {"buffer" : 0, "byteOffset" : 29624, "byteLength" : 105984, "byteStride" : 32, "target" : 34962}, {"buffer" : 0, "byteOffset" : 135612, "byteLength" : 26880, "byteStride" : 32, "target" : 34962}, {"buffer" : 0, "byteOffset" : 162496, "byteLength" : 105984, "byteStride" : 32, "target" : 34962}], "materials" : [{"name" : "", "pbrMetallicRoughness" : {"baseColorFactor" : [0.6901960784313725, 0.6901960784313725, 0.6901960784313725, 1], "metallicFactor" : 0, "roughnessFactor" : 0}, "emissiveFactor" : [0, 0, 0], "alphaMode" : "OPAQUE", "doubleSided" : false}, {"name" : "", "pbrMetallicRoughness" : {"baseColorFactor" : [0.3764705882352941, 0.403921568627451, 0.7019607843137254, 1], "metallicFactor" : 0, "roughnessFactor" : 0}, "emissiveFactor" : [0, 0, 0], "alphaMode" : "OPAQUE", "doubleSided" : false}, {"name" : "", "pbrMetallicRoughness" : {"baseColorFactor" : [0.6901960784313725, 0.6901960784313725, 0.6901960784313725, 1], "metallicFactor" : 0, "roughnessFactor" : 0}, "emissiveFactor" : [0, 0, 0], "alphaMode" : "OPAQUE", "doubleSided" : false}, {"name" : "", "pbrMetallicRoughness" : {"baseColorFactor" : [0.7490196078431373, 0.42745098039215684, 0.42745098039215684, 1], "metallicFactor" : 0, "roughnessFactor" : 0}, "emissiveFactor" : [0, 0, 0], "alphaMode" : "OPAQUE", "doubleSided" : false}], "meshes" : [{"primitives" : [{"attributes" : {"POSITION" : 1, "NORMAL" : 2, "TEXCOORD_0" : 3}, "indices" : 0, "material" : 0, "mode" : 4}], "name" : "Text-mesh"}, {"primitives" : [{"attributes" : {"POSITION" : 5, "NORMAL" : 6, "TEXCOORD_0" : 7}, "indices" : 4, "material" : 1, "mode" : 4}], "name" : "Sphere1-mesh"}, {"primitives" : [{"attributes" : {"POSITION" : 9, "NORMAL" : 10, "TEXCOORD_0" : 11}, "indices" : 8, "material" : 2, "mode" : 4}], "name" : "NaCl -mesh"}, {"primitives" : [{"attributes" : {"POSITION" : 13, "NORMAL" : 14, "TEXCOORD_0" : 15}, "indices" : 12, "material" : 3, "mode" : 4}], "name" : "Sphere-mesh"}], "nodes" : [{"matrix" : [0.4145, 0, 0, 0, 0, 0.4176, 0, 0, 0, 0, 0.7744, 0, 0.227, 0.1313, -0.3164, 1], "mesh" : 0, "name" : "Text"}, {"matrix" : [1, 0, 0, 0, 0, 1, 0, 0, 0, 0, 1, 0, 0.4632, 0.3309, -0.8368, 1], "mesh" : 1, "name" : "Sphere1"}, {"matrix" : [0.15, 0, 0, 0, 0, 0.15, 0, 0, 0, 0, 0.15, 0, -0.406, 0.281, -0.5341, 1], "mesh" : 2, "name" : "NaCl "}, {"matrix" : [0.5, 0, 0, 0, 0, 0.5, 0, 0, 0, 0, 0.5, 0, -0.2931, 0.3208, -0.8353, 1], "mesh" : 3, "name" : "Sphere"}], "scene" : 0, "scenes" : [{"nodes" : [0, 1, 2, 3]}]}